Coordinates
version=1
nRows=7
nColumns=40
inDegrees=yes

Units are S.I. units (second, meters, Newtons, ...)
Angles are in degrees.

endheader
time	pelvis_tilt	pelvis_list	pelvis_rotation	pelvis_tx	pelvis_ty	pelvis_tz	hip_flexion_r	hip_adduction_r	hip_rotation_r	knee_angle_r	knee_angle_r_beta	ankle_angle_r	subtalar_angle_r	mtp_angle_r	hip_flexion_l	hip_adduction_l	hip_rotation_l	knee_angle_l	knee_angle_l_beta	ankle_angle_l	subtalar_angle_l	mtp_angle_l	lumbar_extension	lumbar_bending	lumbar_rotation	arm_flex_r	arm_add_r	arm_rot_r	elbow_flex_r	pro_sup_r	wrist_flex_r	wrist_dev_r	arm_flex_l	arm_add_l	arm_rot_l	elbow_flex_l	pro_sup_l	wrist_flex_l	wrist_dev_l
      1.26000000	      4.05576900	      0.95156202	     -3.45823823	      0.05572653	      0.90150002	      0.99136277	     17.26088864	     -3.10997104	     -6.34276554	    -58.46488154	     -1.02040468	     -1.18113017	    -14.05466919	     12.12770578	     -0.94353001	     -3.90555215	     11.75721048	    -13.96309212	     -0.24370193	      6.78300690	     -7.22187140	     -5.14840908	    -10.64764274	     -0.01126088	     -1.06295675	      6.22776734	     -8.80800956	     20.32489254	     14.64819726	     89.95437384	      0.00000000	      0.00000000	     12.14864260	     11.36866332	    -23.08015548	     21.92961387	     89.95437384	      0.00000000	      0.00000000
      1.27000000	      3.93788047	      1.04589030	     -3.38630672	      0.06447859	      0.90090884	      0.99077597	     18.45729622	     -3.12237591	     -6.53885787	    -57.28464972	     -0.99980575	     -0.78412740	    -13.65707208	     11.85424927	     -1.38822886	     -4.08450549	     11.78667285	    -14.02565042	     -0.24479378	      7.02178846	     -7.12257707	     -5.09530916	    -10.49862056	      0.01097542	     -1.21625248	      5.71642375	     -8.90042784	     20.20943737	     14.66595373	     89.95437384	      0.00000000	      0.00000000	     12.83826846	     11.50642673	    -22.83555185	     22.53250459	     89.95437384	      0.00000000	      0.00000000
      1.28000000	      4.38549844	      0.78269502	     -3.27381334	      0.07364614	      0.90118432	      0.99057506	     18.71053760	     -2.65252515	     -6.75130203	    -55.62049021	     -0.97076069	      0.37951257	    -13.13183404	     11.38394457	     -2.75722049	     -3.91642529	     11.52715717	    -13.66041182	     -0.23841916	      7.73324756	     -7.23193318	     -5.09080872	    -10.99234042	      0.36618773	     -1.44273416	      5.29830581	     -8.93738212	     19.78706917	     14.68645689	     89.95437384	      0.00000000	      0.00000000	     13.41692101	     11.66260970	    -22.16109257	     23.37336799	     89.95437384	      0.00000000	      0.00000000
      1.29000000	      4.19340681	      0.97100058	     -3.24792601	      0.08228463	      0.90020928	      0.99003952	     19.93103180	     -2.84412298	     -7.14517971	    -54.20792749	     -0.94610682	      0.66068398	    -12.78126534	     11.15683279	     -3.10373740	     -4.18509242	     11.65770554	    -13.74787743	     -0.23994573	      7.92281226	     -7.10455616	     -5.04064034	    -10.76896219	      0.27322362	     -1.54545501	      4.79726386	     -9.02994437	     19.69801619	     14.72796118	     89.95437384	      0.00000000	      0.00000000	     14.09657964	     11.78359520	    -21.88175186	     23.97652765	     89.95437384	      0.00000000	      0.00000000
      1.30000000	      4.95627940	      0.58334198	     -2.96830739	      0.09206126	      0.90090701	      0.98972330	     19.49344933	     -2.45651915	     -7.87779369	    -51.98698468	     -0.90734405	      1.39882682	    -12.25260090	     10.66777627	     -4.98663873	     -3.86741636	     11.49060120	    -13.12431945	     -0.22906259	      8.34174127	     -7.46041116	     -5.02798680	    -11.56389770	      0.78577398	     -1.98894690	      4.46184371	     -8.99690680	     19.25753291	     14.63570534	     89.95437384	      0.00000000	      0.00000000	     14.56603715	     11.81337337	    -20.67993055	     24.66457389	     89.95437384	      0.00000000	      0.00000000
      1.31000000	      4.66652715	      0.81506339	     -2.97266961	      0.10068711	      0.89960001	      0.98943732	     20.69399259	     -2.68528338	     -8.31029426	    -50.25198161	     -0.87706253	      1.66197232	    -11.94785942	     10.47910602	     -5.23249772	     -4.16365738	     11.57978162	    -13.21712624	     -0.23068237	      8.64272578	     -7.38983537	     -5.01556863	    -11.23497317	      0.62873879	     -2.05355520	      3.98157697	     -9.04203259	     19.21172151	     14.65069496	     89.95437384	      0.00000000	      0.00000000	     15.17052758	     11.93095108	    -20.44629403	     25.24183303	     89.95437384	      0.00000000	      0.00000000
      1.32000000	      5.05970681	      0.37803025	     -2.58594792	      0.10993949	      0.89953002	      0.98907735	     20.57405013	     -2.28021856	     -9.29359836	    -47.71965034	     -0.83286502	      2.04229947	    -11.51454404	     10.19589169	     -6.46403200	     -3.72646129	     11.19681594	    -13.02356677	     -0.22730412	      9.33500909	     -7.58686819	     -5.12686307	    -11.68878836	      1.23177397	     -2.54161271	      3.68519032	     -9.05606886	     19.10635210	     14.58990111	     89.95437384	      0.00000000	      0.00000000	     15.65281255	     12.01737278	    -19.74539689	     25.93868634	     89.95437384	      0.00000000	      0.00000000
